<svg xmlns="http://www.w3.org/2000/svg" viewBox="0 0 613.23 223.39"><defs><style>.cls-1{fill:#3d6299;stroke:#fff;stroke-miterlimit:10;stroke-width:2px;fill-rule:evenodd;}.cls-16,.cls-2{font-size:55.25px;}.cls-16,.cls-2,.cls-22,.cls-8{fill:#414042;font-family:OpenSans-ExtraBold, Open Sans;font-weight:800;}.cls-18,.cls-2{letter-spacing:-0.06em;}.cls-10,.cls-11,.cls-12,.cls-13,.cls-14,.cls-15,.cls-18,.cls-19,.cls-21,.cls-24,.cls-25,.cls-26,.cls-27,.cls-28,.cls-29,.cls-3,.cls-30,.cls-31,.cls-4,.cls-5,.cls-6,.cls-7,.cls-9{fill:#58595b;}.cls-3{letter-spacing:-0.06em;}.cls-4{letter-spacing:-0.08em;}.cls-17,.cls-5{letter-spacing:-0.04em;}.cls-6{letter-spacing:-0.02em;}.cls-7{letter-spacing:0em;}.cls-8{font-size:45.94px;}.cls-9{letter-spacing:-0.04em;}.cls-10{letter-spacing:-0.02em;}.cls-11{letter-spacing:-0.12em;}.cls-12{letter-spacing:-0.04em;}.cls-13{letter-spacing:-0.06em;}.cls-14{letter-spacing:-0.08em;}.cls-19,.cls-20{letter-spacing:-0.08em;}.cls-21{letter-spacing:-0.1em;}.cls-22{font-size:52.45px;}.cls-23,.cls-25{letter-spacing:-0.02em;}.cls-24{letter-spacing:-0.04em;}.cls-26{letter-spacing:-0.06em;}.cls-27{letter-spacing:-0.08em;}.cls-28{letter-spacing:-0.02em;}.cls-29{letter-spacing:-0.12em;}.cls-30{letter-spacing:-0.1em;}.cls-31{font-size:17px;font-family:OpenSans-Bold, Open Sans;font-weight:700;}.cls-32{letter-spacing:-0.08em;}</style></defs><g id="Layer_2" data-name="Layer 2"><g id="ARTBOARD_4_-_TEXT_ONLY_LOGO" data-name="ARTBOARD 4 - TEXT ONLY LOGO"><g id="TEXT_GROUP" data-name="TEXT GROUP"><path id="STATE_VECTOR" data-name="STATE VECTOR" class="cls-1" d="M91.51,150.85l.87-9.63.17-1.92.17-1.92.18-1.93-2.9-.27-2.91-.28-2.9-.3-2.91-.29-2.89-.3-2.91-.32-2.9-.33L69.69,133,66,132.6l-3.64-.44-3.65-.47-3.63-.46-3.64-.49-3.64-.5-3.63-.51-3.63-.54L37,128.65l-3.62-.55-3.63-.57L26.08,127l-3.61-.6-3.62-.61-3.62-.63-3.61-.63L11,128.29l-.66,3.81-.67,3.83-4,22.88L2.44,177.89,1.8,181.7l-.65,3.81,4.61.81,4.62.78,4.61.76,4.62.75,4.62.72,4.64.69,4.62.69,4.63.65,4.65.64,4.64.62,4.63.59,4.65.57,4.66.56,4.65.53,4.65.51,4.66.5,3,.31,3,.3,3,.29,3,.27.49-5.76.26-2.89.24-2.89.26-2.88.24-2.89.26-2.89.24-2.88.26-2.9.24-2.89.51-5.78.25-2.89.25-2.88ZM224.68,115l-.09-.12-.41-1.37-1.19-1-2-.58-1.28-1-.61-1.42-.4-1.61-.23-1.8.1-1.51.4-1.23-.14-.82-.71-.41-.47-.53-.25-.69-.12-1-3.69.14-3.65.13-3.65.12-3.65.09-3.64.09-3.65.06-3.65.06-3.65,0-3.65,0h-7.3l-3.66,0-3.64,0-3.66-.06-3.64-.06-3.65-.08-1.64,0,.17,1,.43,1,.06.55-.09.44-.33.4.06.62.09.18.72.42.23.56.07.62,0,.48-.46.85-.16,1.15-.6,1.7-.64,1-.14.52,0,.43.92,1.12,0,.45.31.57.25,1.28.34.1.73,1.37.26,2.45.66,2,1,1.52.52,1.11,0,.7.25.75.5.79.18,1.36-.15,1.9.21,1,.54.13.23.27-.08.42.17.31.44.21.11.54-.2.9.14.57.51.24.09.44-.33.65,0,.52.41.38.25,1.66.09,3-.07,1.73-.26.5.36,1.07.7,1.17,2.94,0h5.93l5.94,0,3,0,3,0,3-.05,5.93-.11,3-.07,3-.08,3-.09,3-.1,3-.11,3-.12.62,1.11.65.3.13.37.86.55.2.57,1.07.78.58-.3.1-.79-.2-1.36.61-1.07,1.43-.77,1.27-1.6,1.11-2.45.46-1.74-.15-1-.48-1-.79-.89-.22-1.14.34-1.4,1.23-.93,2.13-.47,1.9-.78,1.7-1.1,1-1.16.27-1.22.46-1,.64-.71.41-1.11.21-1.53,0-1.12-.24-.71-.79-.79-1.34-.88-.77-.85-.21-.82-.73-.86-1.23-.89ZM257,113.16l-1.46.11-5.11.36-5.11.33-5.13.31-5.12.28-5.13.24-5.22.23.74,1,1.23.89.73.86.21.82.77.85,1.34.88.79.79.24.71,0,1.12-.21,1.53-.41,1.11-.64.71-.46,1-.27,1.22-1,1.16-1.7,1.1-1.9.78-2.13.47-1.23.93-.34,1.4.22,1.14.79.89.48,1,.15,1-.46,1.74-1.11,2.45-1.27,1.6-1.43.77-.61,1.07.2,1.36-.1.79-.58.3-.61,2.4,0,2,.49,2.38.53,1.78.61,1.18,2.08,2.19,3.59,3.2,2.29,3.08,1,3,1.09,1.16,1.17-.66,1.49.21,1.64.42.87.54.2.2.1.22-.06.21-.2.61-1.78,5.09-.6,2.32.13.85.87,1.2,1.59,1.55,1.39,1,1.16.44,1.85,1.2,2.55,2,1.3,1.52.05,1.06.3,1.07.56,1.08.06,1-.46,1.05.27,1.34,1,1.65.82,1,.65.32.13,0,0-.15-.1-.24,0-.2,0-.3.12-.12.1,0,.61.39.92.88-.17-.75.33-1,1-1.32,2.13-.18,3.25.95,1.78.22.28-.52-.14-.89-.56-1.25-.23-.95.1-.64,1.25-.81,2.39-1,.95-1.15-.49-1.31.05-1.23.61-1.15.36-.31-.73-1.29,0-.33.39,0,.16-.61-.1-1.18.18-.73.35-.26.05-.24-.18-.13,0-.22.55-.53.08-.53-.4-.54-.06-.53.24-.53.42-.27h.59l.5-.67.43-1.33.54-.83.64-.34.48-.89.47-2.17.58-1,.07-1.09-.27-1.48-.56-1.48-.88-1.48-.25-1,.35-.41.1-.64-.17-.87.32-.86.52-.52v-.06l-.31-4.39-.34-4.63-.34-4.64-.34-4.64-.35-4.63-.34-4.64-.36-4.64-.32-4.13-.45-.55-.64-1.4-.73-2.13-.6-1.27-.47-.38-.44-.62-.42-.87-.33-2ZM179,201.34v-4l0-4v-6l0-2v-8.06l0-2v-6l0-.59-1.87-1.09-.82-1-.41-1.3-.83-1.29L174,162.54l-.2-1.37.86-1.45.71-.74.56,0,.07-.63-.42-1.23-.64-.47-.85.31-.72,0-2.72-2-2.13,0-2.5,0-5-.09-2.48-.06-2.49-.06-2.49-.07-2.49-.07-2.48-.08-2.49-.09-2.48-.09-2.49-.09-2.49-.11-2.48-.11-2.48-.12-2.49-.12-2.49-.13-2.48-.13-5-.3L118.8,153l-5-.33-2.48-.18-2.48-.17-2.49-.19-2.47-.19-2.48-.2-2.49-.21-2.47-.21L94,151.07l-2.48-.22L91,156.63l-.25,2.88-.25,2.89L90,168.18l-.24,2.89-.26,2.9-.24,2.88L89,179.74l-.24,2.89-.26,2.88-.24,2.89L88,191.29l-.49,5.76,2.85.26,5.71.49,2.85.23,2.86.23,2.85.21,5.71.42,2.86.19,2.87.18,2.86.18,2.85.17,5.72.31,2.86.15,2.86.14,2.86.13,2.86.13,2.87.11,2.86.1,2.86.1,2.86.09,2.86.08,2.87.08,2.86.07,2.86.06,5.73.09,2.86,0,2.87,0,2.86,0Zm52.59-172-2-.08-1.28.38-1-.25-.54-.94-.57-.59-2.34.43-3-.05-1.41.19-.57-.39L218.4,27l-.78-.09-1.3.3-1.76,1.45-1.69.79-1.35.06-1.37-.66-2.23-1.36-1.57-1.57-1.73-.5-1.3.18-.48.82-.69,0-.52-1.37L201.2,24l-.86-.44-1.57-1-1.08-.54L196,21.42l-.57-.12-1.06-.06-1,0-1.23.21-.86.87-1,.39-1.48.2-1-.35-.49-.9-2.1-.79-3.67-.67-2.12-.6-.55-.49-.31-.53-.08-.84h0l-.92-2.16-.4-1.8L177,11.58l.07-.71-.21-.23-.65-.47L174,9.85,174,12.43l0,3.27-2.4,0-4.33-.05-4.34-.07-4.33-.1-4.33-.13-1.24,0,.85,4.86,0,1.36-.18.87.09,1.54-.1,1,.13,1.32-.1,1.74.43,2,.68,1.84,0,.53.19,1.11.4.92.84,2.7L156,39.67l.14.78.09,5.5,0,.69.49.86-.27,1.24,0,.65,0,2.3.27.91.25,1.83,1.15,2.28.18.86.05.69.3,1.39-.15,1.84.13,1.19-.41,1.53-.28.66-.53.68L155.76,67l-.42.5,0,.47.32.6L156.5,70l.44.58,1.78,1,.81,1.17-.08,3.48-.08,3.47-.09,3.47-.07,3.48-.17,7L159,97l-.08,3.47,3.65.08,3.64.06,3.66.06,3.64,0,3.66,0h7.3l3.65,0,3.65,0,3.65-.06,3.65-.06,3.64-.09,3.65-.09,3.65-.12,3.65-.13,3.69-.14-.54-4.56-.55-2.13-.73-.82L214,91.56l-2.28-1-1.4-1-.84-1.43-1.64-1.67-1-.68-1-.23-.82-.53-.61-.82-.84-.51-1-.2-1.2-.66-1.41-1.22,0-.09-.3-.9.14-.5.2-1.73,0-.55-.34-1.58.35-.61-.12-1.94.12-.65.7-1.61,0-.81-.28-.94-.57-.75-1.48-.77-.07-1,.22-.74.93-1.41.49-1.23.46-.54,2.84-1.92.62-.15.44-.53.33-.24-.12-4.46-.06-2.24-.07-2.23.72-.18.29-.56.7-.89h.19l0-.42.41-.47,4.29-3.74,2.62-2.65,4.28-5,1.1-1,2.51-1.71,4.07-1.75,2-1,1.72-1,1.08-.77.46-.53.38-.25h.3ZM216.78,148.44l-1.07-.78-.2-.57-.86-.55-.13-.37-.65-.3-.62-1.11-3,.12-3,.11-3,.1-3,.09-3,.08-3,.07-5.93.11-3,.05-3,0-3,0-5.94,0h-5.93l-2.94,0,.29.48.63,1.63.24,1.6.63,1.05,1,.49.67,1.05.33,1.58.82,1.33.19.14,2.72,2,.72,0,.85-.31.64.47.42,1.23-.07.63-.56,0-.71.74-.86,1.45.2,1.37,1.25,1.29.83,1.29.41,1.3.82,1,1.87,1.09,0,.59v6l0,2v8.06l0,2v6l0,4v6l0,3.86v1.93h6.94l3.48,0,3.47,0,3.48,0,3.46-.06,3.48-.06,7-.16,3.46-.1,7-.23,3.46-.14,6.94-.3,3.47-.17.6,1.18.57.76.11.57-.08.58-.86,1.3-.82.62-.43.66-.61.62-.91,1.69,2.06-.13,2.06-.14,2-.14,2.3-.16.06-.45.65-1.18.06-1-.56-.78.24-.44.33-.14.41-.08.13-.21v-.24l-.38-.5.07-.48.6-.35.14-.85-.26-1.13,0-.19,0-.42.06-.2.18,0h.2l.3.38.14.4,0,.07.18.13.24-.15,0,0,.59-1.4.55-.39.26-.09.63.2.31.07.63-.52.51-1.43.26-1.49v-1.56l-.46-1.22-.92-.88-.61-.39-.1,0-.12.12,0,.3,0,.2.1.24,0,.15-.13,0-.65-.32-.82-1-1-1.65-.27-1.34.46-1.05-.06-1-.56-1.08-.3-1.07-.05-1.06-1.3-1.52-2.55-2-1.85-1.2-1.16-.44-1.39-1L231.73,182l-.87-1.2-.13-.85.6-2.32,1.78-5.09.2-.61.06-.21-.1-.22-.2-.2-.87-.54-1.64-.42-1.49-.21-1.17.66-1.09-1.16-1-3-2.29-3.08-3.59-3.2-2.08-2.19-.61-1.18-.53-1.78-.49-2.38,0-2ZM158.65,62.68l-.13-1.19.15-1.84-.3-1.39-.05-.69-.18-.86L157,54.43l-.25-1.83-.27-.91,0-2.3,0-.65.27-1.24-.49-.86,0-.69-.09-5.5-.14-.78.11-2.55-.84-2.7-.4-.92-.19-1.11,0-.53L154,30l-.43-2,.1-1.74-.13-1.32.1-1-.09-1.54.18-.87,0-1.36-.85-4.86-3.09-.1L145.52,15l-4.33-.18-4.33-.22-4.32-.23-4.34-.27-4.31-.28-4.33-.3-4.32-.34-4.32-.35-4.31-.38-4.33-.39L98,11.63l-4.32-.43-4.3-.48-4.31-.49L84,10.11,83.63,13,83.29,16,83,18.89l-.33,2.93-.34,2.94-.34,2.92-.32,2.94-.34,2.94L81,36.49l-.33,2.93-.34,2.93-.34,2.94-.65,5.87L79,54.09,78.63,57l2.49.29,2.49.28,2.49.27,2.49.26,2.5.27,2.49.25,2.5.25,2.5.23,2.49.23,2.5.23,5,.42,2.5.21,2.5.19,5,.37,5,.34,2.5.16,2.51.15,5,.28,2.51.12,2.5.13,2.5.11,5,.22,5,.18,2.5.08,2.51.07Zm-.46,53.14-.87-.23-.84-.7-.46-1.08-1.44-1-2.41-1-1.62-.87-.82-.76-2-.38-3.2,0-2.09.3-1,.63-2-.8-3.28-2.46-4.47-.23L127.8,107l-3.91-.23-3.91-.25-3.92-.26-3.9-.29-3.91-.3-3.91-.31-3.9-.32-3.9-.35-3.91-.37-3.9-.38-3.9-.4-3.89-.41L77,102.7l-3.89-.44-.43,3.84L72.28,110l-1.73,15.39-.43,3.84L69.69,133l2.89.33,2.9.33,2.91.32,2.89.3,2.91.29,2.9.3,2.91.28,2.9.27-.18,1.93-.17,1.92-.17,1.92-.87,9.63,2.48.22,2.48.22,2.47.21,2.49.21,2.48.2,2.47.19,2.49.19,2.48.17,2.48.18,5,.33,2.48.15,5,.3,2.48.13,2.49.13,2.49.12,2.48.12,2.48.11,2.49.11,2.49.09,2.48.09,2.49.09,2.48.08,2.49.07,2.49.07,2.49.06,2.48.06,5,.09,2.5,0,2.13,0-.19-.14-.82-1.33-.33-1.58-.67-1.05-1-.49-.63-1.05-.24-1.6-.63-1.63-.29-.48-.7-1.17-.36-1.07.26-.5.07-1.73-.09-3-.25-1.66-.41-.38,0-.52.33-.65-.09-.44-.51-.24-.14-.57.2-.9-.11-.54-.44-.21-.17-.31.08-.42-.23-.27-.54-.13-.21-1,.15-1.9-.18-1.36-.5-.79-.25-.75,0-.7-.52-1.11-1-1.52-.66-2-.26-2.45-.73-1.37Zm.46-53.14-2.51-.06-2.51-.07-2.5-.08-5-.18-5-.22L138.6,62l-2.5-.13-2.51-.12-5-.28-2.51-.15-2.5-.16-5-.34-5-.37-2.5-.19-2.5-.21-5-.42-2.5-.23-2.49-.23-2.5-.23-2.5-.25-2.49-.25-2.5-.27-2.49-.26-2.49-.27-2.49-.28L78.63,57l-.41,3.58-.4,3.57-.4,3.57L77,71.33v.1l0,0v0H76.9l-.08,0h-.09l-.09,0-.88,7.7L75.33,83l-.44,3.85-.44,3.85L74,94.56l-.86,7.7,3.89.44,3.9.43,3.89.41,3.9.4,3.9.38,3.91.37,3.9.35,3.9.32,3.91.31,3.91.3,3.9.29,3.92.26,3.91.25,3.91.23,3.91.21,4.47.23,3.28,2.46,2,.8,1-.63,2.09-.3,3.2,0,2,.38.82.76,1.62.87,2.41,1,1.44,1,.46,1.08.84.7.87.23-.25-1.28-.31-.57,0-.45-.92-1.12,0-.43.14-.52.64-1,.6-1.7.16-1.15.46-.85,0-.48-.07-.62-.23-.56-.72-.42-.09-.18-.06-.62.33-.4.09-.44-.06-.55-.43-1-.17-1,1.64,0L159,97l.08-3.47.17-7,.07-3.48.09-3.47.08-3.47.08-3.48-.81-1.17-1.78-1L156.5,70l-.79-1.41-.32-.6,0-.47.42-.5,1.67-1.45.53-.68.28-.66Zm103.73,7.23,0-.54-.24-.3-.49-.06-.38.4-.29.88-.43.6-.57.29-.36.59-.14.89-.33.82-.77,1.27,0,.33.09.46.23.59.34.36.43.15.38-.16.88-1.44.06-.3-.13-.13.09-.53.32-.92.26-.46h.19l.18-.2.18-.39-.07-.35-.28-.29v-.13l.3,0,.08-.34-.14-.7.1-.3.35.09Zm1.24-1.86V67.4l-.07-.22-.19-.06-.51,0L262.7,67l-.23.92.25.34h.59ZM220.87,48.9l.31-.24v-.23l.25-.25.66-.46-.08-.2h-.25l-1.36.94-.3.36-.09.29.25,0Zm1.62-2.19.1-.54L222.5,46l-.35.11-.76.34v.23l.77.1Zm-2.5.91.17-.62-.16-.31-.64-.5h-.48l-.62.2-1.85,1.42-.2-.1-.62-.18-.15,0L214,48.79l-1.47.74L209,50.66l-.9.15-.71-.05-.93-.54-.38-.39h-.19l-.7.89-.29.56-.72.18.07,2.23.06,2.24.12,4.46-.33.24-.44.53-.62.15-2.84,1.92-.46.54L199.27,65l-.93,1.41-.22.74.07,1,1.48.77.57.75.28.94,0,.81L199.8,73l-.12.65.12,1.94-.35.61.34,1.58,0,.55-.2,1.73-.14.5.3.9,0,.09,1.41,1.22,1.2.66,1,.2.84.51.61.82.82.53,1,.23,1,.68,1.64,1.67.84,1.43,1.4,1,2.28,1,1.51.92.73.82.55,2.13.54,4.56.12,1,.25.69.47.53.71.41.14.82-.4,1.23-.1,1.51.23,1.8.4,1.61.61,1.42,1.28,1,2,.58,1.19,1,.41,1.37.09.12,5.22-.23,5.13-.24,5.12-.28,5.13-.31,5.11-.33,5.11-.36,1.46-.11-.06-.71,0-2.14.14-1.14-.13-.86-.41-.57-.28-.72-.15-.88-.24-.59-.31-.29-.1-.44.12-.58,0-.39-.17-.21-.06-.31,0-.42-.24-1.24,0-.75.13-.85.52-1.54.15-.74,0-.75.23-1,.67-2,0-.44-.35-.85-.12-.65v-.87l.17-1.09.36-1.32.52-1.07.69-.84.17-.88-.34-1,0-1.44.29-1.94.38-1.47.46-1,.3-.94.13-.87-.13-.37-.44-.37-.45-.57-.68-.07-.78.46h-.12l-.42.09-.7.94L255,79.14l-.46.66-.66.48-.48.52-.29.56-.43.15-.57-.25-.16-.72.24-1.17.42-1.15.88-1.89v-.44l.21-.55,1.54-.91.55-.67.14-.79v-.41l-.54-.15-.5-.58-.31-.6-.08-.64L255,69l0-.26-.09-.15-.36-.14-.75.35-.8.12-.25-.09-.13-.26,0-.43.12-.52.39-1-.06-.89.17-.52-.29-.93v-.45l-.37-.47-.94-.57-2.15-.7.14-1-.13-.41-.55-.58-2.23-.55-1.51-.21-1.45.1-1.08-.19h-1.17l-.79-.37-2.36-1.15L237,57.44l-2.72-.56-1.35-.3-1.36-.29L230.23,56l-1.36-.29-1.35-.3-1.33-2.53-.63-.25-.33-.12-.26-.33-.54.18-.24-.55,0-.12-.64.16-.73-.19-.87-.45-1.33-.84-.18.1.11.18,0,.16-.22.26-1.59.73-.23-.23.56-.94.2-.68,0-.62.23-.77Zm.8-.95-.07-.21-.28-.31-.19,0-.09.22.06.22.41.25ZM223.67,45l.16-.28,0-.31-.13-.11-.27.09-.15.28-.06.49.14.11Z"/><text class="cls-2" transform="translate(264.71 47.34)">M<tspan class="cls-3" x="50.1" y="0">I</tspan><tspan class="cls-4" x="66.02" y="0">D</tspan><tspan class="cls-3" x="102.14" y="0">W</tspan><tspan class="cls-5" x="156.23" y="0">E</tspan><tspan class="cls-6" x="184.34" y="0">S</tspan><tspan class="cls-7" x="215.12" y="0">T</tspan></text><text class="cls-8" transform="translate(274.87 82.67)">A<tspan class="cls-9" x="33.36" y="0">SSOC</tspan><tspan class="cls-10" x="145.46" y="0">I</tspan><tspan class="cls-11" x="160.53" y="0">A</tspan><tspan class="cls-12" x="188.38" y="0">T</tspan><tspan class="cls-13" x="213.68" y="0">I</tspan><tspan class="cls-14" x="226.92" y="0">O</tspan><tspan class="cls-15" x="259.86" y="0">N</tspan></text><text class="cls-16" transform="translate(275.25 124.83)"><tspan class="cls-17">T</tspan><tspan class="cls-18" x="30.43" y="0">EC</tspan><tspan class="cls-19" x="89.97" y="0">HNI</tspan><tspan class="cls-6" x="184.35" y="0">CA</tspan><tspan class="cls-15" x="258.1" y="0">L</tspan></text><text class="cls-16" transform="translate(271.5 167)"><tspan class="cls-20">A</tspan><tspan class="cls-21" x="35.69" y="0">C</tspan><tspan class="cls-3" x="66.02" y="0">CI</tspan><tspan class="cls-19" x="114.48" y="0">D</tspan><tspan class="cls-18" x="150.6" y="0">E</tspan><tspan class="cls-5" x="177.61" y="0">N</tspan><tspan class="cls-15" x="221.47" y="0">T</tspan></text><text class="cls-22" transform="translate(284 208.03) scale(0.84 1)"><tspan class="cls-23">I</tspan><tspan class="cls-24" x="17.21" y="0">NVE</tspan><tspan class="cls-25" x="119.83" y="0">S</tspan><tspan class="cls-26" x="149.05" y="0">T</tspan><tspan class="cls-27" x="176.89" y="0">I</tspan><tspan class="cls-28" x="190.95" y="0">G</tspan><tspan class="cls-29" x="228.72" y="0">A</tspan><tspan class="cls-26" x="260.51" y="0">T</tspan><tspan class="cls-30" x="288.35" y="0">O</tspan><tspan class="cls-15" x="324.9" y="0">RS</tspan></text><text class="cls-31" transform="translate(262.27 113.16)"><tspan class="cls-32">O</tspan><tspan x="12.17" y="0">F</tspan></text></g></g></g></svg>