<svg xmlns="http://www.w3.org/2000/svg" viewBox="0 0 430.95 430.95"><defs><style>.cls-1,.cls-8{fill:#3d6299;fill-rule:evenodd;}.cls-1{stroke:#fff;stroke-width:2px;}.cls-1,.cls-2,.cls-9{stroke-miterlimit:10;}.cls-2,.cls-9{fill:none;stroke:#3d6299;}.cls-2{stroke-width:8px;}.cls-3{font-size:27px;font-family:OpenSans-ExtraBold, Open Sans;font-weight:800;}.cls-3,.cls-4,.cls-7{fill:#414042;}.cls-4{font-size:17px;}.cls-4,.cls-7{font-family:Cambria-Bold, Cambria;font-weight:700;}.cls-5{letter-spacing:-0.01em;}.cls-6{letter-spacing:-0.12em;}.cls-7{font-size:35px;}.cls-9{stroke-width:4px;}</style></defs><g id="Layer_2" data-name="Layer 2"><g id="Artboard2"><path class="cls-1" d="M173.39,240.53l.25-11,.05-2.19.05-2.21.06-2.2-3.33-.09-3.32-.1-3.33-.11-3.32-.12-3.32-.11-3.32-.14-3.33-.15-3.31-.16-4.18-.21-4.18-.23-4.18-.25-4.17-.25-4.16-.28-4.18-.29-4.17-.31-4.17-.33-4.17-.33-4.16-.36-4.16-.37-4.16-.38L93,217.93l-4.16-.42-4.16-.43-4.16-.45L80.08,221l-.46,4.39-.47,4.4-2.74,26.32-2.23,21.93-.44,4.39-.44,4.38,5.3.56,5.31.54,5.3.52,5.31.49,5.31.47,5.32.43,5.3.43,5.33.39,5.33.37,5.32.35,5.31.32,5.33.3,5.34.27,5.32.25,5.33.23,5.33.21,3.5.12,3.48.11,3.49.1,3.49.08.12-6.59.07-3.31.06-3.3.07-3.3.05-3.3.08-3.31,0-3.29.07-3.31.06-3.3.14-6.61.06-3.31.07-3.29Zm148.67-50.9-.11-.12-.57-1.53L320,187l-2.28-.5-1.54-1-.79-1.56-.59-1.8-.39-2v-1.72l.37-1.43-.23-.93-.83-.4-.58-.58-.33-.76-.21-1.08-4.19.44-4.14.43-4.14.41-4.14.38-4.13.38-4.15.35-4.14.35-4.15.31-4.15.31-4.15.29-4.15.28-4.15.25-4.15.24-4.16.22-4.15.21-4.16.19-1.86.15.27,1.09.56,1.06.11.62-.07.51-.34.48.11.7.12.19.85.43.31.61.12.71v.54l-.47,1-.09,1.32-.55,2-.65,1.21-.12.61.09.48,1.13,1.21.08.5.39.63.39,1.44.39.08.94,1.5.48,2.77.9,2.21,1.3,1.64.67,1.22,0,.8.34.83.62.87.31,1.52,0,2.18.31,1.14.63.11.28.29-.06.48.22.34.52.2.17.61-.17,1,.21.63.59.24.14.5-.33.76.08.59.5.39.42,1.88.32,3.35.05,2-.26.58.5,1.2.88,1.27,3.35-.2,3.37-.21,3.37-.23,6.75-.48,3.36-.25,3.38-.27,3.36-.28,6.73-.58,3.37-.3,3.36-.32,3.36-.33,3.36-.33,3.36-.35,3.36-.37.78,1.22.77.29.18.4,1,.57.26.63,1.27.81.65-.39.05-.9-.34-1.54.62-1.26,1.56-1,1.33-1.92,1.07-2.87.39-2-.24-1.16-.62-1.06-1-1-.34-1.29.28-1.6,1.33-1.15,2.38-.7,2.11-1,1.84-1.38,1-1.39.21-1.41.45-1.12.67-.86.39-1.3.12-1.75-.12-1.27-.33-.79-1-.84-1.59-.89-.94-.91-.3-.92-.89-.92-1.47-.93Zm36.56-4.56-1.65.22-5.78.81-5.79.76-5.81.75-5.79.7L328,189l-5.92.65.92,1.1,1.47.93.89.92.3.92.94.91,1.59.89,1,.84.33.79.12,1.27-.12,1.75-.39,1.3-.67.86-.45,1.12-.21,1.41-1,1.39-1.84,1.38-2.11,1-2.38.7-1.33,1.15-.28,1.6.34,1.29,1,1,.62,1.06.24,1.16-.39,2-1.07,2.87-1.33,1.92-1.56,1-.62,1.26.34,1.54-.05.9-.65.39-.5,2.77.2,2.26.73,2.67.75,2,.77,1.3,2.54,2.33,4.32,3.36,2.85,3.33,1.37,3.29,1.32,1.24,1.28-.84,1.72.12,1.89.36,1,.54.24.21.13.24-.05.25-.18.7-1.64,5.93-.5,2.69.22.95,1.07,1.3,1.93,1.64,1.65,1,1.36.41,2.19,1.23,3.05,2.05L347,273.2l.14,1.2.42,1.19.73,1.19.14,1.19-.44,1.22.41,1.51,1.24,1.8,1,1.06.77.32.15,0,0-.18-.14-.26,0-.23,0-.34.13-.14.11-.06.72.4,1.12.93-.26-.84.3-1.13,1.06-1.58,2.41-.36,3.77.83,2,.11.28-.61-.23-1-.73-1.38-.33-1.06.07-.73,1.36-1,2.63-1.34,1-1.38-.66-1.44,0-1.4.61-1.36.39-.38-.94-1.41v-.38l.44-.09.14-.7-.21-1.34.15-.84.38-.32,0-.28-.22-.13,0-.26.58-.63.05-.62-.48-.57-.12-.61.24-.62.45-.34.67-.05.52-.8.39-1.55.55-1,.7-.43.48-1,.36-2.5.59-1.22v-1.24l-.42-1.67-.75-1.63L369.54,244l-.36-1.05.37-.5.07-.73-.26-1,.3-1,.54-.63v-.07l-.68-5-.75-5.25L368,223.6l-.75-5.24-.75-5.25-.74-5.25-.76-5.24-.67-4.67-.56-.6-.83-1.53-1-2.38-.78-1.39-.57-.39-.54-.68-.55-.95-.52-2.24Zm-81.9,106.19-.14-2.28-.15-2.29-.28-4.59-.14-2.29-.14-2.29-.15-2.29-.14-2.29-.15-2.29-.14-2.29-.3-4.59-.14-2.29-.15-2.29-.14-2.3-.14-2.29v-.67l-2.21-1.1-1-1.08-.57-1.45-1-1.41-1.51-1.37-.33-1.53.86-1.72.75-.9.64-.06,0-.72-.57-1.37-.77-.49-.94.42-.83,0-3.23-2.09-2.43.14-2.84.15-5.66.27-2.83.13-2.84.12-2.82.11-2.84.11-2.83.1-2.84.09-2.83.09-2.84.08-2.83.07-2.84.06-2.82.06-2.84,0-2.84,0-2.83,0-5.68,0-2.83,0H193.23l-2.84,0-2.83,0-2.84,0-2.83-.05-2.83,0-2.84-.06-2.83-.06-.14,6.61-.07,3.29-.06,3.31-.14,6.61-.06,3.3-.07,3.31,0,3.29-.08,3.31-.05,3.3-.07,3.3-.06,3.3-.07,3.31-.12,6.59,3.25.08,6.53.12,3.27.05,3.27,0,3.25,0,6.53,0H205l3.27,0,3.25,0,6.53-.07,3.27-.05,3.26-.06,3.26-.07,3.26-.08,3.27-.09,3.26-.1,3.26-.11,3.27-.11,3.25-.13,3.27-.13,3.25-.14,3.27-.14,6.51-.34,3.26-.17,3.26-.19,3.25-.2ZM323.41,91.73l-2.35.06-1.42.54-1.13-.21-.68-1-.7-.63-2.62.67-3.38.17-1.59.32-.67-.4-.65-1.16-.9,0-1.45.45L304,92.25l-1.85,1-1.54.17-1.6-.65-2.64-1.38-1.9-1.65-2-.45-1.47.31-.48,1-.78.08L289,89.15,288.43,88l-1-.43-1.86-1L284.29,86l-1.92-.61-.66-.09H280.5l-1.19,0-1.38.34-.91,1-1.13.53-1.66.33-1.15-.32-.64-1L270,85.57l-4.23-.49-2.45-.52-.66-.51-.39-.58-.16-1h0l-1.21-2.38-.6-2-.36-2.43,0-.81-.26-.25-.78-.49-2.5-.19.15,2.93.2,3.73-2.73.14-4.93.26-4.94.25-4.93.22-4.93.19-1.42,0,1.34,5.46.05,1.54-.14,1,.22,1.74,0,1.17.24,1.5,0,2,.64,2.27.92,2.05V101l.29,1.25.53,1,1.16,3,.07,2.9.22.88.52,6.24.11.79.62.93-.21,1.44v.74l.22,2.62.39,1,.41,2.05,1.48,2.51.28,1,.11.78.44,1.56,0,2.1.23,1.34-.35,1.77-.26.77-.56.82-1.78,1.77-.44.6.09.54.41.65,1,1.55.53.62,2.11,1,1,1.27.18,4,.17,4,.17,4,.18,4,.33,7.92.18,3.95.17,4,4.16-.19,4.15-.21,4.16-.22,4.15-.24,4.15-.25,4.15-.28,4.15-.29,4.15-.31,4.15-.31,4.14-.35,4.15-.35,4.13-.38,4.14-.38,4.14-.41,4.14-.43,4.19-.44-1-5.14-.79-2.39-.89-.87-1.79-.93-2.67-1-1.68-1-1.06-1.57-2-1.77-1.25-.69-1.18-.19-1-.53-.76-.89-1-.52-1.21-.14-1.41-.67-1.7-1.27-.05-.11-.42-1,.13-.58.09-2-.08-.61-.5-1.77.35-.72-.28-2.21.08-.74.68-1.89,0-.92-.4-1-.7-.82-1.74-.75-.15-1.12.19-.87.94-1.66.47-1.44.49-.66,3.08-2.39.69-.22.46-.63.36-.3-.47-5.06-.25-2.54-.25-2.53.8-.26L295,118l.74-1.07H296v-.48l.43-.56,4.6-4.58,2.77-3.21,4.48-6,1.18-1.23,2.72-2.14,4.5-2.3,2.19-1.24,1.88-1.32,1.17-1,.47-.63.42-.32h.34Zm-7.79,136.51-1.27-.81-.26-.63-1-.57-.18-.4-.77-.29-.78-1.22-3.36.37-3.36.35-3.36.33-3.36.33-3.36.32-3.37.3-6.73.58-3.36.28-3.38.27-3.36.25-6.75.48-3.37.23-3.37.21-3.35.2.37.52.84,1.81.39,1.8.8,1.15,1.18.48.83,1.13.5,1.78,1,1.45.23.15,3.23,2.09.83,0,.94-.42.77.49.57,1.37,0,.72-.64.06-.75.9-.86,1.72.33,1.53,1.51,1.37,1,1.41.57,1.45,1,1.08,2.21,1.1v.67l.14,2.29.14,2.3.15,2.29.14,2.29.3,4.59.14,2.29.15,2.29.14,2.29.15,2.29.14,2.29.14,2.29.28,4.59.15,2.29.14,2.28.13,2.21.26,4.38.13,2.21,3.95-.26,3.94-.28,4-.29,3.94-.3,4-.3,3.94-.33,3.95-.34,7.88-.71,3.93-.38,7.88-.79,3.93-.42,7.86-.87,3.93-.46.77,1.3.71.81.18.65-.05.67-.89,1.53-.88.78-.44.77-.64.75-.91,2,2.33-.31,2.33-.32,2.32-.31,2.6-.36,0-.51.65-1.39v-1.14l-.69-.84.24-.52.36-.18.46-.12.13-.25,0-.27-.46-.55,0-.54.65-.45.1-1-.39-1.27-.06-.21v-.49l.05-.22.2-.07.22,0,.38.41.19.44,0,.08.21.14.26-.19,0,0,.57-1.64.59-.49.29-.11.74.18.35.05.68-.64.47-1.66.17-1.72-.11-1.77-.61-1.35-1.12-.93-.72-.4-.11.06-.13.14,0,.34,0,.23.14.26,0,.18-.15,0-.77-.32-1-1.06-1.24-1.8-.41-1.51.44-1.22-.14-1.19-.73-1.19-.42-1.19-.14-1.2-1.59-1.63-3.05-2.05-2.19-1.23-1.36-.41-1.65-1-1.93-1.64-1.07-1.3-.22-.95.5-2.69,1.64-5.93.18-.7.05-.25-.13-.24-.24-.21-1-.54-1.89-.36-1.72-.12-1.28.84-1.32-1.24-1.37-3.29-2.85-3.33-4.32-3.36-2.54-2.33-.77-1.3-.75-2-.73-2.67-.2-2.26ZM243,135.16l-.23-1.34,0-2.1-.44-1.56-.11-.78-.28-1-1.48-2.51-.41-2.05-.39-1-.22-2.62v-.74l.21-1.44-.62-.93-.11-.79-.52-6.24-.22-.88-.07-2.9-1.16-3-.53-1-.29-1.25v-.59l-.92-2.05-.64-2.27,0-2-.24-1.5,0-1.17-.22-1.74.14-1-.05-1.54-1.34-5.46-3.51.12-4.94.14-4.94.11-4.94.08-4.93.07-4.95,0h-4.93l-4.94,0-4.93,0-4.95-.07L180,82l-4.94-.12-4.93-.15-4.94-.17-4.93-.21-4.93-.23-1.26-.06-.15,3.35-.16,3.35-.16,3.37-.16,3.35-.16,3.37-.16,3.35-.14,3.36-.16,3.37-.16,3.35-.15,3.37-.16,3.35-.16,3.37-.3,6.73-.16,3.35-.14,3.37,2.85.13,2.85.13,2.86.12,2.85.11,2.86.11,2.86.1,2.85.09,2.86.08,2.85.07,2.86.07,5.72.1,2.85,0,2.86,0,5.72,0h8.57l2.86,0,5.72-.06,2.86-.05,2.85,0,2.85-.06,5.72-.14,5.72-.18,2.85-.1,2.85-.11Zm3.53,60.46-1-.2-1-.74-.6-1.19-1.72-1.06-2.82-.92-1.9-.88-1-.8-2.31-.28-3.63.22-2.35.51-1.07.79-2.33-.76-3.91-2.54-5.1.08-4.47.05-4.46,0-4.47,0H197.9l-4.46,0-4.47,0-4.46,0-4.46-.07-4.47-.1-4.46-.12-4.47-.14-4.46-.15-4.46-.18-4.47-.19-4.45-.21-.2,4.41-.21,4.41-.79,17.62-.19,4.41-.2,4.41,3.31.16,3.33.15,3.32.14,3.32.11,3.32.12,3.33.11,3.32.1,3.33.09-.06,2.2-.05,2.21-.05,2.19-.25,11,2.83.06,2.84.06,2.83,0,2.83.05,2.84,0,2.83,0,2.84,0h11.34l2.83,0,5.68,0,2.83,0,2.84,0,2.84,0,2.82-.06,2.84-.06,2.83-.07,2.84-.08,2.83-.09,2.84-.09,2.83-.1,2.84-.11,2.82-.11,2.84-.12,2.83-.13,5.66-.27,2.84-.15,2.43-.14-.23-.15-1-1.45-.5-1.78-.83-1.13-1.18-.48-.8-1.15-.39-1.8-.84-1.81-.37-.52-.88-1.27-.5-1.2.26-.58-.05-2-.32-3.35-.42-1.88-.5-.39-.08-.59.33-.76-.14-.5-.59-.24-.21-.63.17-1-.17-.61-.52-.2-.22-.34.06-.48-.28-.29-.63-.11-.31-1.14,0-2.18-.31-1.52-.62-.87-.34-.83,0-.8-.67-1.22-1.3-1.64-.9-2.21-.48-2.77-.94-1.5ZM243,135.16l-2.86.12-2.85.11-2.85.1-5.72.18-5.72.14-2.85.06-2.85,0-2.86.05-5.72.06-2.86,0h-8.57l-5.72,0-2.86,0-2.85,0-5.72-.1-2.86-.07-2.85-.07-2.86-.08-2.85-.09-2.86-.1-2.86-.11-2.85-.11-2.86-.12-2.85-.13-2.85-.13-.19,4.1-.18,4.08-.19,4.1-.18,4.1v.22h-.4l-.41,8.81-.2,4.41-.21,4.41-.2,4.4-.21,4.41-.39,8.81,4.45.21,4.47.19,4.46.18,4.46.15,4.47.14,4.46.12,4.47.1,4.46.07,4.46,0,4.47,0,4.46,0h4.47l4.47,0,4.46,0,4.47-.05,5.1-.08,3.91,2.54,2.33.76,1.07-.79,2.35-.51,3.63-.22,2.31.28,1,.8,1.9.88,2.82.92,1.72,1.06.6,1.19,1,.74,1,.2-.39-1.44-.39-.63-.08-.5-1.13-1.21-.09-.48.12-.61.65-1.21.55-2,.09-1.32.47-1v-.54l-.12-.71-.31-.61L245,183l-.12-.19-.11-.7.34-.48.07-.51-.11-.62-.56-1.06-.27-1.09,1.86-.15-.17-4-.18-3.95-.33-7.92-.18-4-.17-4-.17-4-.18-4-1-1.27-2.11-1-.53-.62-1-1.55-.41-.65-.09-.54.44-.6,1.78-1.77.56-.82.26-.77Zm118.49.31,0-.6-.3-.33-.56,0-.4.48-.26,1-.45.7-.62.38-.37.7-.09,1-.31.95-.78,1.5,0,.38.14.52.31.65.4.38.51.14.42-.21.89-1.7,0-.35-.17-.14.07-.61.3-1.07.26-.54h.22l.18-.24.17-.46-.1-.4-.35-.3v-.15H361l.06-.39-.21-.79.09-.35.41.08Zm1.27-2.2-.06-.75-.1-.23-.22-.06-.58.07-.17-.16-.19,1.06.31.36.67-.05Zm-50.07-18.51.33-.3v-.27l.26-.3.72-.57-.11-.23-.28,0-1.48,1.17-.31.44-.08.33.29,0Zm1.67-2.62.08-.63-.11-.14-.39.15-.85.46v.26l.89.05Zm-2.77,1.23.15-.73-.2-.33-.77-.52-.55,0-.69.28-2,1.76-.24-.1-.72-.16-.17.06-1.52,1.5-1.62,1-3.92,1.55-1,.24h-.81l-1.1-.55-.46-.42h-.21L295,118l-.29.67-.8.26.25,2.53.25,2.54.47,5.06-.36.3-.46.63-.69.22-3.08,2.39-.49.66-.47,1.44-.94,1.66-.19.87.15,1.12,1.74.75.7.82.4,1,0,.92-.68,1.89-.08.74.28,2.21-.35.72.5,1.77.08.61-.09,2-.13.58.42,1,.05.11,1.7,1.27,1.41.67,1.21.14,1,.52.76.89,1,.53,1.18.19,1.25.69,2,1.77,1.06,1.57,1.68,1,2.67,1,1.79.93.89.87.79,2.39,1,5.14.21,1.08.33.76.58.58.83.4.23.93-.37,1.43V180l.39,2,.59,1.8.79,1.56,1.54,1,2.28.5,1.43,1,.57,1.53.11.12L328,189l5.82-.67,5.79-.7,5.81-.75,5.79-.76,5.78-.81,1.65-.22-.12-.81-.22-2.43.07-1.31-.22-1-.5-.62-.37-.8-.24-1-.32-.65-.37-.31-.15-.49.09-.67-.06-.44-.21-.22-.1-.35,0-.49-.37-1.39-.08-.85.08-1,.48-1.79.11-.85-.07-.86.18-1.11.61-2.33-.06-.51-.46-.93-.19-.73-.07-1,.11-1.26.31-1.52.5-1.26.73-1,.13-1-.47-1-.14-1.64.18-2.22.32-1.7.45-1.17.27-1.09.08-1-.18-.41-.52-.39-.56-.6-.77,0-.86.58h-.14l-.46.14-.74,1.12-.53,1.85-.47.79-.71.6-.51.62-.29.66-.47.21-.67-.25-.24-.81.18-1.34.39-1.35.86-2.21,0-.5.19-.64,1.68-1.15.58-.81.1-.91,0-.46-.62-.13-.61-.62-.41-.65-.14-.73L353,135l0-.29-.11-.16-.41-.14-.84.46-.89.19-.3-.07-.17-.29-.06-.49.1-.59.37-1.14-.14-1,.15-.61-.4-1,0-.51-.45-.51-1.11-.57-2.51-.63.08-1.13-.17-.46-.67-.61-2.58-.46-1.73-.13-1.64.23-1.24-.14-1.34.09-.92-.37-2.77-1.13-1.56-.22-3.13-.43-1.56-.23-1.57-.23-1.56-.23-1.57-.23-1.55-.23L319,118.87l-.74-.23-.38-.12-.32-.35-.6.24-.31-.61,0-.13-.72.23-.84-.16-1-.45-1.57-.85-.2.12.14.2v.18l-.24.32-1.75.95-.27-.25.56-1.11.18-.78-.1-.71.21-.89Zm.84-1.14-.09-.24-.35-.33-.22,0-.08.26.08.24.49.25Zm3.15-2.14.15-.33,0-.35-.16-.11-.3.12-.16.33,0,.56.16.11Z"/></g><g id="Circle"><circle id="Main_Outer_Circle" data-name="Main Outer Circle" class="cls-2" cx="215.48" cy="215.48" r="211.48"/><text class="cls-3" transform="translate(101.48 354.05) rotate(-136.38)">M</text><text class="cls-3" transform="matrix(-0.65, -0.76, 0.76, -0.65, 83.16, 336.07)">I</text><text class="cls-3" transform="matrix(-0.59, -0.81, 0.81, -0.59, 77.08, 329.37)">D</text><text class="cls-3" transform="matrix(-0.48, -0.88, 0.88, -0.48, 65.42, 314.04)">W</text><text class="cls-3" transform="translate(52.44 289.77) rotate(-112.15)">E</text><text class="cls-3" transform="translate(46.97 276.39) rotate(-107.37)">S</text><text class="cls-3" transform="matrix(-0.21, -0.98, 0.98, -0.21, 42.41, 261.89)">T</text><text class="cls-3" transform="matrix(-0.15, -0.99, 0.99, -0.15, 39.17, 246.58)"> </text><text class="cls-3" transform="translate(37.91 240.01) rotate(-94.67)">A</text><text class="cls-3" transform="matrix(0.02, -1, 1, 0.02, 36.4, 220.88)">S</text><text class="cls-3" transform="translate(36.61 205.67) rotate(-84.44)">S</text><text class="cls-3" transform="matrix(0.2, -0.98, 0.98, 0.2, 37.91, 190.57)">O</text><text class="cls-3" transform="translate(42.13 169.97) rotate(-72.51)">C</text><text class="cls-3" transform="translate(47.43 153.62) rotate(-68.27)">I</text><text class="cls-3" transform="translate(50.57 145.14) rotate(-63.72)">A</text><text class="cls-3" transform="matrix(0.53, -0.85, 0.85, 0.53, 59.12, 127.99)">T</text><text class="cls-3" transform="translate(67.45 114.76) rotate(-54.22)">I</text><text class="cls-3" transform="matrix(0.65, -0.76, 0.76, 0.65, 72.52, 107.27)">O</text><text class="cls-3" transform="matrix(0.74, -0.68, 0.68, 0.74, 86.14, 91.28)">N</text><text class="cls-3" transform="translate(102.65 76.51) rotate(-37.99)"> </text><text class="cls-3" transform="matrix(0.83, -0.55, 0.55, 0.83, 107.71, 72.18)">O</text><text class="cls-3" transform="matrix(0.88, -0.47, 0.47, 0.88, 125.35, 60.66)">F</text><text class="cls-3" transform="matrix(0.91, -0.42, 0.42, 0.91, 138.02, 54.06)"> </text><text class="cls-3" transform="translate(144.09 51.12) rotate(-20.94)">T</text><text class="cls-3" transform="matrix(0.96, -0.28, 0.28, 0.96, 158.64, 45.57)">E</text><text class="cls-3" transform="matrix(0.98, -0.19, 0.19, 0.98, 172.49, 41.49)">C</text><text class="cls-3" transform="translate(189.21 38.13) rotate(-5.05)">H</text><text class="cls-3" transform="matrix(1, 0.03, -0.03, 1, 209.31, 36.27)">N</text><text class="cls-3" transform="matrix(0.99, 0.11, -0.11, 0.99, 231.39, 37.15)">I</text><text class="cls-3" transform="translate(240.44 38.02) rotate(10.75)">C</text><text class="cls-3" transform="translate(257.23 41.13) rotate(16.58)">A</text><text class="cls-3" transform="translate(275.56 46.67) rotate(22.12)">L</text><text class="cls-3" transform="translate(289.81 52.6) rotate(25.69)"> </text><text class="cls-3" transform="translate(295.96 55.29) rotate(29.86)">A</text><text class="cls-3" transform="matrix(0.81, 0.58, -0.58, 0.81, 312.56, 64.86)">C</text><text class="cls-3" transform="translate(326.45 74.79) rotate(41.09)">C</text><text class="cls-3" transform="matrix(0.7, 0.71, -0.71, 0.7, 339.31, 86.19)">I</text><text class="cls-3" transform="matrix(0.65, 0.76, -0.76, 0.65, 345.85, 92.47)">D</text><text class="cls-3" transform="matrix(0.57, 0.82, -0.82, 0.57, 358.28, 107.34)">E</text><text class="cls-3" transform="translate(366.67 119.02) rotate(61.01)">N</text><text class="cls-3" transform="translate(377.23 138.38) rotate(67.04)">T</text><text class="cls-3" transform="translate(383.22 152.86) rotate(70.65)"> </text><text class="cls-3" transform="translate(385.5 159.27) rotate(73.23)">I</text><text class="cls-3" transform="translate(388.39 167.81) rotate(78.24)">N</text><text class="cls-3" transform="matrix(0.09, 1, -1, 0.09, 392.8, 189.39)">V</text><text class="cls-3" transform="translate(394.32 207.6) rotate(89.07)">E</text><text class="cls-3" transform="translate(394.49 222.08) rotate(94.54)">S</text><text class="cls-3" transform="translate(393.31 237.25) rotate(99.46)">T</text><text class="cls-3" transform="translate(390.64 252.64) rotate(103.44)">I</text><text class="cls-3" transform="translate(388.76 261.5) rotate(108.06)">G</text><text class="cls-3" transform="matrix(-0.41, 0.91, -0.91, -0.41, 382.73, 280.05)">A</text><text class="cls-3" transform="translate(374.78 297.49) rotate(119.85)">T</text><text class="cls-3" transform="translate(367.21 311.02) rotate(125.69)">O</text><text class="cls-3" transform="matrix(-0.67, 0.74, -0.74, -0.67, 354.88, 328.08)">R</text><text class="cls-3" transform="matrix(-0.73, 0.68, -0.68, -0.73, 342.93, 341.35)">S</text><text class="cls-4" transform="translate(202.72 390.36)">E<tspan class="cls-5" x="9.82" y="0">S</tspan><tspan class="cls-6" x="18.34" y="0">T</tspan><tspan x="27.21" y="0">.</tspan></text><text class="cls-7" transform="translate(172.76 414.08) rotate(9.14)">1</text><text class="cls-7" transform="translate(194.85 417.54) rotate(2.86)">9</text><text class="cls-7" transform="matrix(1, -0.06, 0.06, 1, 217.15, 418.57)">8</text><text class="cls-7" transform="translate(239.46 417.18) rotate(-9.64)">6</text><polygon id="Star_L" data-name="Star L" class="cls-8" points="191 371.01 192.35 378.4 199.81 379.42 193.19 382.99 194.52 390.39 189.07 385.2 182.43 388.76 185.69 381.98 180.25 376.78 187.72 377.78 191 371.01"/><polygon id="Star_R" data-name="Star R" class="cls-8" points="245.49 371.02 244.1 378.4 236.64 379.38 243.24 382.99 241.86 390.38 247.33 385.23 253.94 388.82 250.72 382.02 256.18 376.85 248.72 377.81 245.49 371.02"/><path class="cls-9" d="M174.79,378.17C103.18,358.55,46.38,293.05,46.38,215.29c0-93.28,75.69-168.9,169.07-168.9S384.51,122,384.51,215.29c0,77.51-52.26,142.82-123.5,162.69"/></g></g></svg>